<mxfile host="app.diagrams.net" modified="2022-02-01T18:37:51.312Z" agent="5.0 (Windows NT 10.0; Win64; x64) AppleWebKit/537.36 (KHTML, like Gecko) Chrome/97.0.4692.99 Safari/537.36" etag="fzoTp3kh43Rce8rXWG1k" version="16.5.2" type="github">
  <diagram id="KJ0OMVQqvkp7y9awNzan" name="Page-1">
    <mxGraphModel dx="2249" dy="1963" grid="1" gridSize="10" guides="1" tooltips="1" connect="1" arrows="1" fold="1" page="1" pageScale="1" pageWidth="827" pageHeight="1169" math="0" shadow="0">
      <root>
        <mxCell id="0" />
        <mxCell id="1" parent="0" />
        <mxCell id="UVdwKWLXprJKEMujvejF-7" style="edgeStyle=orthogonalEdgeStyle;rounded=0;orthogonalLoop=1;jettySize=auto;html=1;exitX=0.75;exitY=0;exitDx=0;exitDy=0;" edge="1" parent="1" source="ZV6S64bWPlCg-hae5csx-1" target="UVdwKWLXprJKEMujvejF-5">
          <mxGeometry relative="1" as="geometry" />
        </mxCell>
        <mxCell id="UVdwKWLXprJKEMujvejF-8" style="edgeStyle=orthogonalEdgeStyle;rounded=0;orthogonalLoop=1;jettySize=auto;html=1;exitX=0.25;exitY=0;exitDx=0;exitDy=0;" edge="1" parent="1" source="ZV6S64bWPlCg-hae5csx-1" target="UVdwKWLXprJKEMujvejF-6">
          <mxGeometry relative="1" as="geometry" />
        </mxCell>
        <mxCell id="UVdwKWLXprJKEMujvejF-9" style="edgeStyle=orthogonalEdgeStyle;rounded=0;orthogonalLoop=1;jettySize=auto;html=1;exitX=0.5;exitY=1;exitDx=0;exitDy=0;" edge="1" parent="1" source="ZV6S64bWPlCg-hae5csx-1" target="UVdwKWLXprJKEMujvejF-2">
          <mxGeometry relative="1" as="geometry" />
        </mxCell>
        <mxCell id="UVdwKWLXprJKEMujvejF-26" style="edgeStyle=orthogonalEdgeStyle;rounded=0;orthogonalLoop=1;jettySize=auto;html=1;exitX=1;exitY=0.5;exitDx=0;exitDy=0;entryX=0.5;entryY=0;entryDx=0;entryDy=0;endArrow=baseDash;endFill=0;" edge="1" parent="1" source="ZV6S64bWPlCg-hae5csx-1" target="UVdwKWLXprJKEMujvejF-23">
          <mxGeometry relative="1" as="geometry" />
        </mxCell>
        <mxCell id="ZV6S64bWPlCg-hae5csx-1" value="DIRECCIÓN GENERAL" style="rounded=0;whiteSpace=wrap;html=1;fillColor=#3399FF;" parent="1" vertex="1">
          <mxGeometry x="60" y="120" width="130" height="70" as="geometry" />
        </mxCell>
        <mxCell id="ZV6S64bWPlCg-hae5csx-2" value="ADMINISTRACIÓN Y RECURSOS HUMANOS" style="rounded=0;whiteSpace=wrap;html=1;fillColor=#66FF66;" parent="1" vertex="1">
          <mxGeometry x="750" y="62" width="130" height="70" as="geometry" />
        </mxCell>
        <mxCell id="ZV6S64bWPlCg-hae5csx-3" value="PRODUCCIÓN" style="rounded=0;whiteSpace=wrap;html=1;fillColor=#B266FF;" parent="1" vertex="1">
          <mxGeometry x="470" y="28" width="130" height="70" as="geometry" />
        </mxCell>
        <mxCell id="ZV6S64bWPlCg-hae5csx-5" value="FINANZAS Y CONTABILIDAD" style="rounded=0;whiteSpace=wrap;html=1;fillColor=#FFFF66;" parent="1" vertex="1">
          <mxGeometry x="100" y="500" width="130" height="70" as="geometry" />
        </mxCell>
        <mxCell id="UVdwKWLXprJKEMujvejF-27" style="edgeStyle=orthogonalEdgeStyle;rounded=0;orthogonalLoop=1;jettySize=auto;html=1;exitX=0.5;exitY=0;exitDx=0;exitDy=0;entryX=1;entryY=0.5;entryDx=0;entryDy=0;endArrow=baseDash;endFill=0;" edge="1" parent="1" source="ZV6S64bWPlCg-hae5csx-6" target="UVdwKWLXprJKEMujvejF-23">
          <mxGeometry relative="1" as="geometry" />
        </mxCell>
        <mxCell id="UVdwKWLXprJKEMujvejF-30" style="edgeStyle=orthogonalEdgeStyle;rounded=0;orthogonalLoop=1;jettySize=auto;html=1;exitX=0.5;exitY=1;exitDx=0;exitDy=0;endArrow=baseDash;endFill=0;" edge="1" parent="1" source="ZV6S64bWPlCg-hae5csx-6" target="UVdwKWLXprJKEMujvejF-29">
          <mxGeometry relative="1" as="geometry" />
        </mxCell>
        <mxCell id="UVdwKWLXprJKEMujvejF-38" style="edgeStyle=orthogonalEdgeStyle;rounded=0;orthogonalLoop=1;jettySize=auto;html=1;exitX=0;exitY=0.5;exitDx=0;exitDy=0;entryX=1;entryY=0.5;entryDx=0;entryDy=0;endArrow=baseDash;endFill=0;" edge="1" parent="1" source="ZV6S64bWPlCg-hae5csx-6" target="UVdwKWLXprJKEMujvejF-37">
          <mxGeometry relative="1" as="geometry" />
        </mxCell>
        <mxCell id="UVdwKWLXprJKEMujvejF-44" style="edgeStyle=orthogonalEdgeStyle;rounded=0;orthogonalLoop=1;jettySize=auto;html=1;exitX=1;exitY=0.75;exitDx=0;exitDy=0;entryX=0;entryY=0.5;entryDx=0;entryDy=0;endArrow=baseDash;endFill=0;" edge="1" parent="1" source="ZV6S64bWPlCg-hae5csx-6" target="UVdwKWLXprJKEMujvejF-34">
          <mxGeometry relative="1" as="geometry" />
        </mxCell>
        <mxCell id="UVdwKWLXprJKEMujvejF-48" style="edgeStyle=orthogonalEdgeStyle;rounded=0;orthogonalLoop=1;jettySize=auto;html=1;exitX=0.75;exitY=0;exitDx=0;exitDy=0;entryX=0;entryY=0.5;entryDx=0;entryDy=0;entryPerimeter=0;endArrow=baseDash;endFill=0;" edge="1" parent="1" source="ZV6S64bWPlCg-hae5csx-6" target="UVdwKWLXprJKEMujvejF-33">
          <mxGeometry relative="1" as="geometry" />
        </mxCell>
        <mxCell id="ZV6S64bWPlCg-hae5csx-6" value="MARKETING" style="rounded=0;whiteSpace=wrap;html=1;fillColor=#FF6666;" parent="1" vertex="1">
          <mxGeometry x="697" y="400" width="130" height="70" as="geometry" />
        </mxCell>
        <mxCell id="UVdwKWLXprJKEMujvejF-1" value="" style="points=[];aspect=fixed;html=1;align=center;shadow=0;dashed=0;image;image=img/lib/allied_telesis/computer_and_terminals/Personal_Computer.svg;" vertex="1" parent="1">
          <mxGeometry x="220.5" y="260" width="45.6" height="61.800000000000004" as="geometry" />
        </mxCell>
        <mxCell id="UVdwKWLXprJKEMujvejF-10" style="edgeStyle=orthogonalEdgeStyle;rounded=0;orthogonalLoop=1;jettySize=auto;html=1;exitX=0.84;exitY=0.28;exitDx=0;exitDy=0;exitPerimeter=0;entryX=0;entryY=0.324;entryDx=0;entryDy=0;entryPerimeter=0;" edge="1" parent="1" source="UVdwKWLXprJKEMujvejF-2" target="UVdwKWLXprJKEMujvejF-1">
          <mxGeometry relative="1" as="geometry" />
        </mxCell>
        <mxCell id="UVdwKWLXprJKEMujvejF-11" style="edgeStyle=orthogonalEdgeStyle;rounded=0;orthogonalLoop=1;jettySize=auto;html=1;exitX=0.87;exitY=0.65;exitDx=0;exitDy=0;exitPerimeter=0;" edge="1" parent="1" source="UVdwKWLXprJKEMujvejF-2" target="UVdwKWLXprJKEMujvejF-3">
          <mxGeometry relative="1" as="geometry" />
        </mxCell>
        <mxCell id="UVdwKWLXprJKEMujvejF-13" style="edgeStyle=orthogonalEdgeStyle;rounded=0;orthogonalLoop=1;jettySize=auto;html=1;exitX=0.14;exitY=0.65;exitDx=0;exitDy=0;exitPerimeter=0;entryX=0.5;entryY=0;entryDx=0;entryDy=0;" edge="1" parent="1" source="UVdwKWLXprJKEMujvejF-2" target="UVdwKWLXprJKEMujvejF-12">
          <mxGeometry relative="1" as="geometry" />
        </mxCell>
        <mxCell id="UVdwKWLXprJKEMujvejF-2" value="" style="verticalLabelPosition=bottom;html=1;verticalAlign=top;align=center;strokeColor=none;fillColor=#00BEF2;shape=mxgraph.azure.user;" vertex="1" parent="1">
          <mxGeometry x="101.25" y="230" width="47.5" height="50" as="geometry" />
        </mxCell>
        <mxCell id="UVdwKWLXprJKEMujvejF-3" value="" style="verticalLabelPosition=bottom;html=1;verticalAlign=top;align=center;strokeColor=none;fillColor=#00BEF2;shape=mxgraph.azure.mobile;pointerEvents=1;" vertex="1" parent="1">
          <mxGeometry x="80" y="350" width="35" height="50" as="geometry" />
        </mxCell>
        <mxCell id="UVdwKWLXprJKEMujvejF-5" value="" style="shape=mxgraph.cisco.storage.file_cabinet;html=1;pointerEvents=1;dashed=0;fillColor=#036897;strokeColor=#ffffff;strokeWidth=2;verticalLabelPosition=bottom;verticalAlign=top;align=center;outlineConnect=0;" vertex="1" parent="1">
          <mxGeometry x="169.5" y="-2" width="51" height="62" as="geometry" />
        </mxCell>
        <mxCell id="UVdwKWLXprJKEMujvejF-6" value="" style="shape=image;html=1;verticalAlign=top;verticalLabelPosition=bottom;labelBackgroundColor=#ffffff;imageAspect=0;aspect=fixed;image=https://cdn0.iconfinder.com/data/icons/web-development-and-studio/512/30_Graph_Analysis_analytic_analytics_chart_data-128.png" vertex="1" parent="1">
          <mxGeometry x="-20" y="10.000000000000005" width="70" height="70" as="geometry" />
        </mxCell>
        <mxCell id="UVdwKWLXprJKEMujvejF-12" value="" style="shape=image;html=1;verticalAlign=top;verticalLabelPosition=bottom;labelBackgroundColor=#ffffff;imageAspect=0;aspect=fixed;image=https://cdn4.iconfinder.com/data/icons/common-toolbar/36/Print-2-128.png" vertex="1" parent="1">
          <mxGeometry x="-30" y="290" width="50" height="50" as="geometry" />
        </mxCell>
        <mxCell id="UVdwKWLXprJKEMujvejF-14" value="Director General" style="text;html=1;strokeColor=none;fillColor=none;align=center;verticalAlign=middle;whiteSpace=wrap;rounded=0;" vertex="1" parent="1">
          <mxGeometry x="60" y="280" width="60" height="30" as="geometry" />
        </mxCell>
        <mxCell id="UVdwKWLXprJKEMujvejF-16" value="Impresora" style="text;html=1;strokeColor=none;fillColor=none;align=center;verticalAlign=middle;whiteSpace=wrap;rounded=0;" vertex="1" parent="1">
          <mxGeometry x="-30" y="330" width="60" height="30" as="geometry" />
        </mxCell>
        <mxCell id="UVdwKWLXprJKEMujvejF-17" value="Celular" style="text;html=1;strokeColor=none;fillColor=none;align=center;verticalAlign=middle;whiteSpace=wrap;rounded=0;" vertex="1" parent="1">
          <mxGeometry x="50" y="400" width="60" height="30" as="geometry" />
        </mxCell>
        <mxCell id="UVdwKWLXprJKEMujvejF-18" value="Computador Personal" style="text;html=1;strokeColor=none;fillColor=none;align=center;verticalAlign=middle;whiteSpace=wrap;rounded=0;" vertex="1" parent="1">
          <mxGeometry x="260" y="240" width="60" height="30" as="geometry" />
        </mxCell>
        <mxCell id="UVdwKWLXprJKEMujvejF-19" value="Almacenamiento de Información" style="text;html=1;strokeColor=none;fillColor=none;align=center;verticalAlign=middle;whiteSpace=wrap;rounded=0;" vertex="1" parent="1">
          <mxGeometry x="230" y="26" width="70" height="34" as="geometry" />
        </mxCell>
        <mxCell id="UVdwKWLXprJKEMujvejF-21" value="Análisis de Datos" style="text;html=1;strokeColor=none;fillColor=none;align=center;verticalAlign=middle;whiteSpace=wrap;rounded=0;" vertex="1" parent="1">
          <mxGeometry x="50" y="27.999999999999996" width="70" height="34" as="geometry" />
        </mxCell>
        <mxCell id="UVdwKWLXprJKEMujvejF-50" style="edgeStyle=orthogonalEdgeStyle;rounded=0;orthogonalLoop=1;jettySize=auto;html=1;exitX=0;exitY=1;exitDx=0;exitDy=0;endArrow=baseDash;endFill=0;" edge="1" parent="1" source="UVdwKWLXprJKEMujvejF-23" target="ZV6S64bWPlCg-hae5csx-5">
          <mxGeometry relative="1" as="geometry" />
        </mxCell>
        <mxCell id="UVdwKWLXprJKEMujvejF-23" value="EMPRESA PROMEDIO" style="rounded=0;whiteSpace=wrap;html=1;fillColor=#FF8000;" vertex="1" parent="1">
          <mxGeometry x="430" y="260" width="130" height="70" as="geometry" />
        </mxCell>
        <mxCell id="UVdwKWLXprJKEMujvejF-29" value="" style="shape=image;html=1;verticalAlign=top;verticalLabelPosition=bottom;labelBackgroundColor=#ffffff;imageAspect=0;aspect=fixed;image=https://cdn0.iconfinder.com/data/icons/Free-PSD-blogging-icons-Bimbilini/64/shopping_cart.png;fillColor=#FF8000;" vertex="1" parent="1">
          <mxGeometry x="737" y="540" width="50" height="50" as="geometry" />
        </mxCell>
        <mxCell id="UVdwKWLXprJKEMujvejF-32" style="edgeStyle=orthogonalEdgeStyle;rounded=0;orthogonalLoop=1;jettySize=auto;html=1;exitX=0.5;exitY=0;exitDx=0;exitDy=0;exitPerimeter=0;entryX=0.5;entryY=1;entryDx=0;entryDy=0;endArrow=baseDash;endFill=0;" edge="1" parent="1" source="UVdwKWLXprJKEMujvejF-31" target="UVdwKWLXprJKEMujvejF-29">
          <mxGeometry relative="1" as="geometry" />
        </mxCell>
        <mxCell id="UVdwKWLXprJKEMujvejF-31" value="" style="outlineConnect=0;dashed=0;verticalLabelPosition=bottom;verticalAlign=top;align=center;html=1;shape=mxgraph.aws3.user;fillColor=#D2D3D3;gradientColor=none;" vertex="1" parent="1">
          <mxGeometry x="739.5" y="660" width="45" height="63" as="geometry" />
        </mxCell>
        <mxCell id="UVdwKWLXprJKEMujvejF-49" style="edgeStyle=orthogonalEdgeStyle;rounded=0;orthogonalLoop=1;jettySize=auto;html=1;exitX=1;exitY=0.5;exitDx=0;exitDy=0;exitPerimeter=0;entryX=0;entryY=0.5;entryDx=0;entryDy=0;endArrow=baseDash;endFill=0;" edge="1" parent="1" source="UVdwKWLXprJKEMujvejF-33" target="UVdwKWLXprJKEMujvejF-35">
          <mxGeometry relative="1" as="geometry" />
        </mxCell>
        <mxCell id="UVdwKWLXprJKEMujvejF-33" value="" style="fontColor=#0066CC;verticalAlign=top;verticalLabelPosition=bottom;labelPosition=center;align=center;html=1;outlineConnect=0;fillColor=#CCCCCC;strokeColor=#6881B3;gradientColor=none;gradientDirection=north;strokeWidth=2;shape=mxgraph.networks.pc;" vertex="1" parent="1">
          <mxGeometry x="880" y="321.8" width="70" height="60" as="geometry" />
        </mxCell>
        <mxCell id="UVdwKWLXprJKEMujvejF-45" style="edgeStyle=orthogonalEdgeStyle;rounded=0;orthogonalLoop=1;jettySize=auto;html=1;exitX=1;exitY=0.5;exitDx=0;exitDy=0;entryX=0.02;entryY=0.7;entryDx=0;entryDy=0;entryPerimeter=0;endArrow=baseDash;endFill=0;" edge="1" parent="1" source="UVdwKWLXprJKEMujvejF-34" target="UVdwKWLXprJKEMujvejF-36">
          <mxGeometry relative="1" as="geometry" />
        </mxCell>
        <mxCell id="UVdwKWLXprJKEMujvejF-34" value="" style="aspect=fixed;perimeter=ellipsePerimeter;html=1;align=center;shadow=0;dashed=0;spacingTop=3;image;image=img/lib/active_directory/database_server.svg;fillColor=#FF8000;" vertex="1" parent="1">
          <mxGeometry x="910" y="440" width="49.2" height="60" as="geometry" />
        </mxCell>
        <mxCell id="UVdwKWLXprJKEMujvejF-35" value="" style="shape=image;html=1;verticalAlign=top;verticalLabelPosition=bottom;labelBackgroundColor=#ffffff;imageAspect=0;aspect=fixed;image=https://cdn4.iconfinder.com/data/icons/business-black-1/64/36-128.png;fillColor=#FF8000;" vertex="1" parent="1">
          <mxGeometry x="1030" y="311.8" width="80" height="80" as="geometry" />
        </mxCell>
        <mxCell id="UVdwKWLXprJKEMujvejF-36" value="" style="html=1;verticalLabelPosition=bottom;align=center;labelBackgroundColor=#ffffff;verticalAlign=top;strokeWidth=2;strokeColor=#0080F0;shadow=0;dashed=0;shape=mxgraph.ios7.icons.mail;fillColor=#FF8000;" vertex="1" parent="1">
          <mxGeometry x="1050" y="450" width="50" height="30" as="geometry" />
        </mxCell>
        <mxCell id="UVdwKWLXprJKEMujvejF-37" value="" style="shape=image;html=1;verticalAlign=top;verticalLabelPosition=bottom;labelBackgroundColor=#ffffff;imageAspect=0;aspect=fixed;image=https://cdn1.iconfinder.com/data/icons/communication-icons-10/750/Untitled-1-07-128.png;fillColor=#FF8000;" vertex="1" parent="1">
          <mxGeometry x="560" y="396" width="78" height="78" as="geometry" />
        </mxCell>
        <mxCell id="UVdwKWLXprJKEMujvejF-39" value="Redes Sociales" style="text;html=1;strokeColor=none;fillColor=none;align=center;verticalAlign=middle;whiteSpace=wrap;rounded=0;" vertex="1" parent="1">
          <mxGeometry x="560" y="480" width="60" height="30" as="geometry" />
        </mxCell>
        <mxCell id="UVdwKWLXprJKEMujvejF-40" value="Tiendo online" style="text;html=1;strokeColor=none;fillColor=none;align=center;verticalAlign=middle;whiteSpace=wrap;rounded=0;" vertex="1" parent="1">
          <mxGeometry x="790" y="550" width="60" height="30" as="geometry" />
        </mxCell>
        <mxCell id="UVdwKWLXprJKEMujvejF-41" value="Usuario" style="text;html=1;strokeColor=none;fillColor=none;align=center;verticalAlign=middle;whiteSpace=wrap;rounded=0;" vertex="1" parent="1">
          <mxGeometry x="800" y="676.5" width="60" height="30" as="geometry" />
        </mxCell>
        <mxCell id="UVdwKWLXprJKEMujvejF-42" value="Servidor de correo" style="text;html=1;strokeColor=none;fillColor=none;align=center;verticalAlign=middle;whiteSpace=wrap;rounded=0;" vertex="1" parent="1">
          <mxGeometry x="1030" y="490" width="60" height="30" as="geometry" />
        </mxCell>
        <mxCell id="UVdwKWLXprJKEMujvejF-43" value="Servidor y almacenamiento" style="text;html=1;strokeColor=none;fillColor=none;align=center;verticalAlign=middle;whiteSpace=wrap;rounded=0;" vertex="1" parent="1">
          <mxGeometry x="900" y="500" width="60" height="30" as="geometry" />
        </mxCell>
        <mxCell id="UVdwKWLXprJKEMujvejF-46" value="Computador de area" style="text;html=1;strokeColor=none;fillColor=none;align=center;verticalAlign=middle;whiteSpace=wrap;rounded=0;" vertex="1" parent="1">
          <mxGeometry x="885" y="281.8" width="60" height="30" as="geometry" />
        </mxCell>
        <mxCell id="UVdwKWLXprJKEMujvejF-47" value="Análisis de mercados" style="text;html=1;strokeColor=none;fillColor=none;align=center;verticalAlign=middle;whiteSpace=wrap;rounded=0;" vertex="1" parent="1">
          <mxGeometry x="1040" y="270" width="60" height="30" as="geometry" />
        </mxCell>
      </root>
    </mxGraphModel>
  </diagram>
</mxfile>
